<?xml version="1.0" encoding="UTF-8" standalone="no"?>
<!-- Created with Inkscape (http://www.inkscape.org/) -->

<svg
   width="112.08774mm"
   height="112.80392mm"
   viewBox="0 0 112.08774 112.80392"
   version="1.1"
   id="svg1"
   xml:space="preserve"
   xmlns:inkscape="http://www.inkscape.org/namespaces/inkscape"
   xmlns:sodipodi="http://sodipodi.sourceforge.net/DTD/sodipodi-0.dtd"
   xmlns="http://www.w3.org/2000/svg"
   xmlns:svg="http://www.w3.org/2000/svg"><sodipodi:namedview
     id="namedview1"
     pagecolor="#ffffff"
     bordercolor="#000000"
     borderopacity="0.25"
     inkscape:showpageshadow="2"
     inkscape:pageopacity="0.0"
     inkscape:pagecheckerboard="0"
     inkscape:deskcolor="#d1d1d1"
     inkscape:document-units="mm" /><defs
     id="defs1" /><g
     inkscape:label="Capa 1"
     inkscape:groupmode="layer"
     id="layer1"
     transform="translate(-51.35296,-82.944212)"><path
       style="fill:#40a8f2;fill-rule:evenodd;stroke-width:4.23034;stroke-opacity:0.928444;paint-order:markers stroke fill"
       d="m 103.48782,167.94411 c -0.55261,-0.10653 -2.18028,-0.56065 -3.617048,-1.00915 -9.523773,-2.97293 -16.078415,-9.56073 -19.341846,-19.4397 -1.218748,-3.68935 -1.315837,-11.91163 -0.184394,-15.61565 3.209076,-10.50561 10.348863,-17.58609 20.557578,-20.38681 4.15942,-1.14112 12.28798,-0.95913 16.18169,0.36229 7.49899,2.54495 13.50053,7.71132 16.99158,14.62706 0.63916,1.26615 1.1621,2.39768 1.1621,2.51451 0,0.11682 -2.37897,0.2124 -5.28661,0.2124 h -5.2866 l -2.13844,-2.36305 c -3.95982,-4.37574 -8.55607,-6.47862 -14.16026,-6.47862 -7.23432,0 -13.548017,3.75435 -16.904707,10.05214 -2.053695,3.85313 -2.614459,3.61227 8.409909,3.61227 7.648798,0 9.645468,0.10821 9.645468,0.52273 0,0.28749 -0.36719,2.14123 -0.81598,4.11941 -0.44879,1.97818 -0.92836,4.20777 -1.06573,4.95465 l -0.24975,1.35795 -8.579737,-0.1827 c -9.907931,-0.21099 -9.59018,-0.36965 -7.319018,3.65462 6.397993,11.33662 21.155795,13.40852 30.309125,4.25519 1.3777,-1.3777 2.62693,-2.88938 2.77608,-3.35929 0.25876,-0.8153 0.51771,-0.85436 5.66379,-0.85436 h 5.39263 l -0.82473,2.10994 c -2.07931,5.3196 -7.51485,11.35886 -12.62701,14.02946 -4.77566,2.49481 -7.45592,3.19399 -12.86062,3.35486 -2.6525,0.0789 -5.27487,0.0564 -5.82747,-0.0502 z"
       id="path25" /><path
       style="fill:#40a8f2;fill-rule:evenodd;stroke-width:4.23034;stroke-opacity:0.928444;paint-order:markers stroke fill"
       d="M 101.6793,195.53274 C 94.479352,194.66651 88.491469,192.85966 82.237452,189.66616 59.693243,178.15437 47.583703,153.35211 52.40053,128.55541 c 1.305999,-6.7232 3.202167,-11.70165 6.781625,-17.80539 7.258195,-12.376762 19.719644,-21.968676 33.454514,-25.750844 19.736681,-5.434888 40.358061,0.06816 54.867551,14.642034 7.92051,7.95566 12.9171,16.79701 15.17684,26.85507 l 0.60948,2.71278 h -9.11606 -9.11605 l -0.54769,-1.90899 c -0.82629,-2.88011 -3.48162,-8.01821 -5.66771,-10.96712 -4.60104,-6.20651 -11.24771,-11.03135 -18.67659,-13.55737 -4.70797,-1.60084 -6.7287,-1.90048 -12.65967,-1.87721 -4.79604,0.0188 -6.43211,0.18787 -9.243578,0.9551 -14.797722,4.0382 -24.943307,14.75198 -28.568861,30.16886 -0.671462,2.85524 -0.673944,11.57883 -0.0042,14.62421 1.224296,5.56667 3.007709,9.80734 6.001721,14.27111 4.777925,7.12342 12.25664,12.78827 20.25732,15.34417 3.040033,0.97118 9.016868,1.97514 11.758498,1.97514 2.72998,0 8.71416,-1.00258 11.72475,-1.96435 8.27144,-2.6424 15.7679,-8.26618 20.41331,-15.31389 2.03048,-3.08049 4.71173,-8.80928 5.21976,-11.15256 L 145.34866,148.5 h 9.04602 9.04602 l -0.28446,1.70805 c -0.49928,2.99799 -2.45851,9.25213 -3.8085,12.15731 -5.57279,11.99259 -14.18378,21.0344 -25.82603,27.11813 -5.04421,2.63588 -9.08892,4.06719 -14.80242,5.23815 -4.41521,0.90487 -12.90267,1.30888 -17.04003,0.8111 z"
       id="path26" /></g></svg>
